<svg width="720" height="240" viewBox="0 0 720 240" fill="none" xmlns="http://www.w3.org/2000/svg">
<path d="M219.787 198.335V84.9028H267.087C275.579 84.9028 282.697 86.103 288.439 88.5033C293.666 90.4994 298.179 94.0093 301.4 98.5841C304.336 103.032 305.852 108.266 305.748 113.594C305.82 117.609 304.887 121.579 303.033 125.142C301.246 128.495 298.682 131.373 295.556 133.533C292.233 135.811 288.484 137.393 284.534 138.185V139.293C289.009 139.484 293.37 140.758 297.245 143.004C301.142 145.258 304.38 148.495 306.634 152.391C309.079 156.719 310.303 161.63 310.178 166.599C310.269 172.376 308.65 178.051 305.525 182.91C302.204 187.879 297.536 191.798 292.067 194.208C286.196 196.959 279.069 198.335 270.688 198.335L219.787 198.335ZM247.203 131.539H262.38C265.112 131.588 267.826 131.08 270.355 130.044C272.548 129.153 274.442 127.654 275.811 125.723C277.16 123.712 277.847 121.331 277.777 118.911C277.853 117.203 277.527 115.501 276.824 113.943C276.122 112.384 275.064 111.013 273.734 109.938C271.038 107.76 267.401 106.671 262.822 106.671H247.203V131.539ZM247.203 176.235H264.152C270.096 176.235 274.481 175.109 277.306 172.858C278.706 171.734 279.819 170.295 280.556 168.658C281.292 167.022 281.63 165.234 281.543 163.441C281.612 160.775 280.9 158.147 279.494 155.881C278.072 153.711 276.052 151.999 273.679 150.951C270.832 149.721 267.751 149.125 264.65 149.207H247.203V176.235Z" fill="white"/>
<path d="M321.799 198.335V84.9028H349.215V176.069H396.405V198.335L321.799 198.335Z" fill="white"/>
<path d="M435.003 198.335H405.537L443.809 84.9028H480.309L518.581 198.335H489.116L462.474 113.483H461.588L435.003 198.335ZM431.071 153.693H492.66V174.519H431.071V153.693Z" fill="white"/>
<path d="M587.024 118.911C586.929 117.071 586.442 115.272 585.597 113.634C584.752 111.996 583.568 110.557 582.123 109.413C579.223 107.141 575.097 106.005 569.743 106.006C566.729 105.919 563.725 106.389 560.881 107.391C558.783 108.122 556.938 109.438 555.564 111.184C554.385 112.781 553.745 114.711 553.737 116.696C553.632 118.259 553.988 119.819 554.762 121.182C555.595 122.556 556.732 123.721 558.085 124.588C559.735 125.661 561.512 126.527 563.374 127.164C565.656 127.962 567.987 128.609 570.353 129.102L580.101 131.318C585.226 132.376 590.215 134.011 594.972 136.192C598.958 138.01 602.623 140.461 605.828 143.448C608.708 146.174 610.983 149.476 612.502 153.139C614.065 157.049 614.855 161.225 614.828 165.436C614.971 171.997 613.074 178.441 609.4 183.88C605.526 189.239 600.162 193.342 593.975 195.677C587.274 198.409 579.196 199.775 569.743 199.775C561.276 199.956 552.852 198.509 544.931 195.51C538.255 192.967 532.516 188.445 528.481 182.55C524.566 176.754 522.554 169.424 522.443 160.562H548.696C548.789 163.825 549.807 166.994 551.632 169.701C553.443 172.196 555.933 174.119 558.805 175.239C562.183 176.556 565.786 177.196 569.411 177.123C572.623 177.202 575.823 176.695 578.854 175.627C581.197 174.812 583.274 173.376 584.865 171.473C586.252 169.744 587.013 167.597 587.024 165.381C587.033 163.365 586.326 161.412 585.03 159.869C583.383 158.094 581.345 156.729 579.077 155.881C575.763 154.558 572.345 153.511 568.858 152.753L557.004 149.983C547.182 147.731 539.447 144.085 533.798 139.045C528.148 134.004 525.342 127.182 525.379 118.579C525.213 111.981 527.196 105.508 531.028 100.135C535.073 94.6633 540.529 90.3944 546.813 87.7844C554.083 84.7219 561.912 83.2126 569.799 83.3533C577.665 83.1693 585.479 84.6902 592.702 87.8114C598.807 90.4723 604.038 94.8012 607.794 100.301C611.426 105.824 613.335 112.301 613.277 118.911H587.024Z" fill="white"/>
<path d="M623.461 107.169V84.9028H719.335V107.169H684.94V198.335H657.912V107.169H623.461Z" fill="white"/>
<path d="M191.637 146.694C190.84 170.605 181.192 193.368 164.563 210.568C147.934 227.768 125.51 238.18 101.639 239.783C77.7691 241.387 54.1539 234.068 35.3739 219.246C16.5939 204.425 3.98761 183.157 0 159.567H25.3029C27.3761 159.56 29.4029 160.18 31.1163 161.348C32.8297 162.515 34.1492 164.174 34.9009 166.106C38.6754 176.187 44.9187 185.16 53.0592 192.203C61.1997 199.246 70.9771 204.135 81.4961 206.42C92.0151 208.706 102.939 208.316 113.269 205.286C123.598 202.257 133.002 196.684 140.62 189.078C148.237 181.473 153.825 172.077 156.871 161.753C159.918 151.429 160.325 140.505 158.056 129.982C155.787 119.46 150.914 109.675 143.884 101.523C136.854 93.3712 127.891 87.1135 117.816 83.323C115.862 82.568 114.184 81.2361 113.006 79.5045C111.827 77.7729 111.203 75.7236 111.217 73.629V48.2661C134.265 52.1594 155.118 64.281 169.907 82.3816C184.696 100.482 192.417 123.333 191.637 146.694V146.694Z" fill="white"/>
<path d="M95.1994 181.715C116.37 181.715 133.532 164.553 133.532 143.383C133.532 122.212 116.37 105.05 95.1994 105.05C74.0291 105.05 56.8672 122.212 56.8672 143.383C56.8672 164.553 74.0291 181.715 95.1994 181.715Z" fill="white"/>
<path d="M0 125.866V21.6676C0.00317877 15.922 2.28703 10.4126 6.3498 6.3498C10.4126 2.28703 15.922 0.00317877 21.6676 0C24.3905 0.00632316 27.0003 1.08998 28.9268 3.01425C30.8533 4.93852 31.94 7.54701 31.9495 10.2699V70.5217C45.3128 58.9035 61.6253 51.2018 79.0879 48.2662V73.593C79.0718 75.7129 78.4114 77.7778 77.1942 79.5135C75.9771 81.2492 74.2609 82.5736 72.2733 83.3111C64.0069 86.4668 56.479 91.2912 50.1586 97.4835C43.8383 103.676 38.8609 111.104 35.5368 119.304C34.799 121.147 33.5503 122.741 31.9375 123.899C30.1982 125.178 28.0976 125.871 25.9387 125.878L0 125.866Z" fill="white"/>
</svg>
